<mxfile host="app.diagrams.net" modified="2022-04-26T14:29:58.832Z" agent="5.0 (Windows NT 10.0; Win64; x64) AppleWebKit/537.36 (KHTML, like Gecko) Chrome/100.0.4896.127 Safari/537.36 Edg/100.0.1185.50" etag="nKX3czEhKWH_zhojCCEd" version="17.4.6" type="github">
  <diagram id="u-LHPFJ34j5MzzrMpvS_" name="Page-1">
    <mxGraphModel dx="1038" dy="579" grid="1" gridSize="10" guides="1" tooltips="1" connect="1" arrows="1" fold="1" page="1" pageScale="1" pageWidth="850" pageHeight="1100" math="0" shadow="0">
      <root>
        <mxCell id="0" />
        <mxCell id="1" parent="0" />
        <mxCell id="0fnCMEP8QieOlwX2wxo0-3" value="" style="edgeStyle=orthogonalEdgeStyle;rounded=0;orthogonalLoop=1;jettySize=auto;html=1;" edge="1" parent="1" source="0fnCMEP8QieOlwX2wxo0-1" target="0fnCMEP8QieOlwX2wxo0-2">
          <mxGeometry relative="1" as="geometry" />
        </mxCell>
        <mxCell id="0fnCMEP8QieOlwX2wxo0-1" value="start" style="rounded=1;whiteSpace=wrap;html=1;" vertex="1" parent="1">
          <mxGeometry x="320" y="20" width="100" height="40" as="geometry" />
        </mxCell>
        <mxCell id="0fnCMEP8QieOlwX2wxo0-5" value="" style="edgeStyle=orthogonalEdgeStyle;rounded=0;orthogonalLoop=1;jettySize=auto;html=1;" edge="1" parent="1" source="0fnCMEP8QieOlwX2wxo0-2" target="0fnCMEP8QieOlwX2wxo0-4">
          <mxGeometry relative="1" as="geometry" />
        </mxCell>
        <mxCell id="0fnCMEP8QieOlwX2wxo0-2" value="IF default agent created" style="rhombus;whiteSpace=wrap;html=1;" vertex="1" parent="1">
          <mxGeometry x="330" y="100" width="80" height="80" as="geometry" />
        </mxCell>
        <mxCell id="0fnCMEP8QieOlwX2wxo0-9" value="" style="edgeStyle=orthogonalEdgeStyle;rounded=0;orthogonalLoop=1;jettySize=auto;html=1;" edge="1" parent="1" source="0fnCMEP8QieOlwX2wxo0-4" target="0fnCMEP8QieOlwX2wxo0-8">
          <mxGeometry relative="1" as="geometry" />
        </mxCell>
        <mxCell id="0fnCMEP8QieOlwX2wxo0-4" value="call render functions" style="rounded=1;whiteSpace=wrap;html=1;" vertex="1" parent="1">
          <mxGeometry x="310" y="230" width="120" height="60" as="geometry" />
        </mxCell>
        <mxCell id="0fnCMEP8QieOlwX2wxo0-11" value="" style="edgeStyle=orthogonalEdgeStyle;rounded=0;orthogonalLoop=1;jettySize=auto;html=1;" edge="1" parent="1" source="0fnCMEP8QieOlwX2wxo0-8" target="0fnCMEP8QieOlwX2wxo0-10">
          <mxGeometry relative="1" as="geometry" />
        </mxCell>
        <mxCell id="0fnCMEP8QieOlwX2wxo0-8" value="IF people waiting to exit" style="rhombus;whiteSpace=wrap;html=1;" vertex="1" parent="1">
          <mxGeometry x="330" y="310" width="80" height="80" as="geometry" />
        </mxCell>
        <mxCell id="0fnCMEP8QieOlwX2wxo0-13" value="" style="edgeStyle=orthogonalEdgeStyle;rounded=0;orthogonalLoop=1;jettySize=auto;html=1;" edge="1" parent="1" source="0fnCMEP8QieOlwX2wxo0-10" target="0fnCMEP8QieOlwX2wxo0-12">
          <mxGeometry relative="1" as="geometry" />
        </mxCell>
        <mxCell id="0fnCMEP8QieOlwX2wxo0-10" value="call&amp;nbsp;exitPopFrmArena for exit the pop" style="rounded=1;whiteSpace=wrap;html=1;" vertex="1" parent="1">
          <mxGeometry x="310" y="430" width="120" height="60" as="geometry" />
        </mxCell>
        <mxCell id="0fnCMEP8QieOlwX2wxo0-12" value="end" style="ellipse;whiteSpace=wrap;html=1;aspect=fixed;" vertex="1" parent="1">
          <mxGeometry x="345" y="520" width="50" height="50" as="geometry" />
        </mxCell>
      </root>
    </mxGraphModel>
  </diagram>
</mxfile>
